<svg width="24" height="25" viewBox="0 0 24 25" fill="none" xmlns="http://www.w3.org/2000/svg">
<path d="M5 7.5H18.79C19.0694 7.50001 19.3457 7.55857 19.6011 7.67191C19.8565 7.78524 20.0854 7.95083 20.2729 8.15801C20.4603 8.36519 20.6023 8.60936 20.6897 8.87478C20.777 9.14019 20.8078 9.42097 20.78 9.699L20.18 15.699C20.1307 16.1925 19.8997 16.6501 19.532 16.9829C19.1642 17.3157 18.686 17.5 18.19 17.5H8.64C8.17747 17.5002 7.72918 17.34 7.37144 17.0469C7.01371 16.7537 6.76866 16.3456 6.678 15.892L5 7.5Z" stroke="#0A151E" stroke-width="2" stroke-linejoin="round"/>
<path d="M5 7.5L4.19 4.257C4.13583 4.04075 4.01095 3.84881 3.83521 3.71166C3.65946 3.5745 3.44293 3.50001 3.22 3.5H2M8 21.5H10M16 21.5H18" stroke="#0A151E" stroke-width="2" stroke-linecap="round" stroke-linejoin="round"/>
</svg>
